<svg id="레이어_1" data-name="레이어 1" xmlns="http://www.w3.org/2000/svg" viewBox="0 0 1451.34 1451.34"><defs><style>.cls-1{fill:#fff;}</style></defs><title>zzzzzz</title><path class="cls-1" d="M472.18,694.42v4.48a12.33,12.33,0,0,1-12.33,12.33H346.23a12.33,12.33,0,0,1-12.33-12.33v-4.48a12.33,12.33,0,0,1,12.33-12.33h26.89a12.33,12.33,0,0,0,12.33-12.33h0a12.33,12.33,0,0,1,12.33-12.33h11.65a12.33,12.33,0,0,1,12.33,12.33h0a12.33,12.33,0,0,0,12.33,12.33h25.77A12.33,12.33,0,0,1,472.18,694.42Zm-11.65,68.13c0,24.88-24.2,42.36-56.92,42.36s-56.92-17.48-56.92-42.36c0-25.1,24.2-42.58,56.92-42.58S460.53,737.45,460.53,762.55Zm-37,0c0-9.19-8.52-12.55-19.95-12.55-11.65,0-19.94,3.36-19.94,12.55,0,9,8.29,12.33,19.94,12.33C415,774.88,423.55,771.51,423.55,762.55Z"/><path class="cls-1" d="M594.77,684.56v5.15A12.33,12.33,0,0,0,607.1,702H645a12.33,12.33,0,0,0,12.33-12.33v-5.15a12.33,12.33,0,0,1,12.33-12.33h11.21a12.33,12.33,0,0,1,12.33,12.33v93.23a12.33,12.33,0,0,1-12.33,12.33H571.24a12.33,12.33,0,0,1-12.33-12.33V684.56a12.33,12.33,0,0,1,12.33-12.33h11.21A12.33,12.33,0,0,1,594.77,684.56Zm12.33,74.18H645a12.33,12.33,0,0,0,12.33-12.33v-.22A12.33,12.33,0,0,0,645,733.86H607.1a12.33,12.33,0,0,0-12.33,12.33v.22A12.33,12.33,0,0,0,607.1,758.74Z"/><path class="cls-1" d="M867.06,699.8c0,24.73,10.49,48.43,42.31,60.11a12.37,12.37,0,0,1,6.46,18l-3.28,5.4a12.38,12.38,0,0,1-14.62,5.25c-17-5.82-29.92-14.68-39.31-26a12.36,12.36,0,0,0-19.07,0c-9.48,11.3-22.43,20.17-39.44,26a12.38,12.38,0,0,1-14.62-5.24l-3.28-5.41a12.37,12.37,0,0,1,6.46-18C820.49,748.23,831,724.53,831,699.8v-.9H794a12.33,12.33,0,0,1-12.33-12.33v-3.81A12.33,12.33,0,0,1,794,670.44h111.6a12.33,12.33,0,0,1,12.33,12.33v3.81a12.33,12.33,0,0,1-12.33,12.33H867.06Z"/><path class="cls-1" d="M1139.8,730.28c0,35-30.7,60.51-67.68,60.51s-67.68-25.55-67.68-60.51,30.7-60.51,67.68-60.51S1139.8,695.32,1139.8,730.28Zm-101.07,0c0,19,14.79,30,33.39,30s33.39-11,33.39-30-14.79-30-33.39-30S1038.73,711.23,1038.73,730.28Z"/><circle class="cls-1" cx="290.83" cy="818.21" r="23.83"/><circle class="cls-1" cx="1183.01" cy="628.4" r="23.83"/></svg>